<svg xmlns="http://www.w3.org/2000/svg" viewBox="0 0 814 586" width="814" height="586">
	<defs>
		<linearGradient id="grd1" gradientUnits="userSpaceOnUse"  x1="675.913" y1="438.926" x2="677.917" y2="234.973">
			<stop offset="0" stop-color="#808080" stop-opacity="0.25" />
			<stop offset="0.535" stop-color="#808080" stop-opacity="0.12" />
			<stop offset="1" stop-color="#808080" stop-opacity="0.1" />
		</linearGradient>
		<linearGradient id="grd2" gradientUnits="userSpaceOnUse"  x1="72887.188" y1="165416.949" x2="72887.188" y2="122228.826">
			<stop offset="0" stop-color="#808080" stop-opacity="0.25" />
			<stop offset="0.535" stop-color="#808080" stop-opacity="0.12" />
			<stop offset="1" stop-color="#808080" stop-opacity="0.1" />
		</linearGradient>
		<linearGradient id="grd3" gradientUnits="userSpaceOnUse"  x1="87301.451" y1="164719.785" x2="87301.451" y2="122538.57">
			<stop offset="0" stop-color="#808080" stop-opacity="0.25" />
			<stop offset="0.535" stop-color="#808080" stop-opacity="0.12" />
			<stop offset="1" stop-color="#808080" stop-opacity="0.1" />
		</linearGradient>
		<linearGradient id="grd4" gradientUnits="userSpaceOnUse"  x1="94182.109" y1="162574.261" x2="94182.109" y2="121890.491">
			<stop offset="0" stop-color="#808080" stop-opacity="0.25" />
			<stop offset="0.535" stop-color="#808080" stop-opacity="0.12" />
			<stop offset="1" stop-color="#808080" stop-opacity="0.1" />
		</linearGradient>
	</defs>
	<style>
		tspan { white-space:pre }
		.shp0 { fill: #6c63ff } 
		.shp1 { fill: #ffffff } 
		.shp2 { fill: #f5f5f5 } 
		.shp3 { fill: #3f3d56 } 
		.shp4 { fill: #47e6b1 } 
		.shp5 { opacity: 0.502;fill: #4d8af0 } 
		.shp6 { opacity: 0.502;fill: #f55f44 } 
		.shp7 { opacity: 0.502;fill: #47e6b1 } 
		.shp8 { fill: url(#grd1) } 
		.shp9 { fill: #e0e0e0 } 
		.shp10 { fill: #4d8af0 } 
		.shp11 { opacity: 0.302;fill: #4d8af0 } 
		.shp12 { fill: url(#grd2) } 
		.shp13 { fill: #ff5252 } 
		.shp14 { opacity: 0.502;fill: #ff5252 } 
		.shp15 { opacity: 0.302;fill: #ff5252 } 
		.shp16 { fill: url(#grd3) } 
		.shp17 { fill: #69f0ae } 
		.shp18 { opacity: 0.502;fill: #69f0ae } 
		.shp19 { opacity: 0.302;fill: #69f0ae } 
		.shp20 { fill: url(#grd4) } 
		.shp21 { opacity: 0.502;fill: #6c63ff } 
		.shp22 { opacity: 0.302;fill: #6c63ff } 
	</style>
	<path id="Layer" class="shp0" d="M156.1 40.31L332.73 0.33C339.98 -1.31 347.16 3.23 348.8 10.47L409.54 278.83C411.18 286.07 406.64 293.26 399.4 294.9L222.76 334.87C215.52 336.51 208.33 331.98 206.69 324.73L145.96 56.38C144.32 49.13 148.85 41.95 156.1 40.31Z" />
	<path id="Layer" class="shp1" d="M163.4 88.85C160.08 88.85 157.4 86.17 157.4 82.85C157.4 79.54 160.08 76.85 163.4 76.85C166.72 76.85 169.4 79.54 169.4 82.85C169.4 86.17 166.72 88.85 163.4 88.85Z" />
	<path id="Layer" class="shp1" d="M169.4 110.85C166.08 110.85 163.4 108.17 163.4 104.85C163.4 101.54 166.08 98.85 169.4 98.85C172.72 98.85 175.4 101.54 175.4 104.85C175.4 108.17 172.72 110.85 169.4 110.85Z" />
	<path id="Layer" class="shp1" d="M208.4 271.85C205.08 271.85 202.4 269.17 202.4 265.85C202.4 262.54 205.08 259.85 208.4 259.85C211.72 259.85 214.4 262.54 214.4 265.85C214.4 269.17 211.72 271.85 208.4 271.85Z" />
	<path id="Layer" class="shp1" d="M214.4 293.85C211.08 293.85 208.4 291.17 208.4 287.85C208.4 284.54 211.08 281.85 214.4 281.85C217.72 281.85 220.4 284.54 220.4 287.85C220.4 291.17 217.72 293.85 214.4 293.85Z" />
	<path id="Layer" class="shp2" d="M210.19 139.5L331.99 111.94L336.58 132.24L214.79 159.8L210.19 139.5Z" />
	<path id="Layer" class="shp3" d="M278.97 170.91L613.52 44.67L766.65 450.46L432.1 576.7L278.97 170.91Z" />
	<path id="Layer" class="shp0" d="M457.8 450.22L608.03 393.53L610.37 399.73L460.13 456.42L457.8 450.22Z" />
	<path id="Layer" class="shp0" d="M471.82 487.39L718.09 394.47L720.42 400.66L474.16 493.59L471.82 487.39Z" />
	<path id="Layer" class="shp0" d="M640.56 381.26L704.06 357.3L706.4 363.49L642.9 387.45L640.56 381.26Z" />
	<path id="Layer" class="shp0" d="M464.81 468.81L528.31 444.85L530.65 451.04L467.15 475L464.81 468.81Z" />
	<path id="Layer" class="shp0" d="M556.19 434.33L619.69 410.36L622.03 416.56L558.53 440.52L556.19 434.33Z" />
	<path id="Layer" class="shp0" d="M647.57 399.84L711.07 375.88L713.41 382.08L649.91 406.04L647.57 399.84Z" />
	<path id="Layer" class="shp0" d="M389.92 240.97L575.78 170.84L601.5 238.99L415.64 309.12L389.92 240.97Z" />
	<g id="Layer" style="opacity: 0.502">
		<path id="Layer" class="shp4" d="M726.4 191.85L729.4 191.85L729.4 208.85L726.4 208.85L726.4 191.85Z" />
		<path id="Layer" class="shp4" d="M736.4 198.85L736.4 201.85L719.4 201.85L719.4 198.85L736.4 198.85Z" />
	</g>
	<g id="Layer" style="opacity: 0.502">
		<path id="Layer" class="shp4" d="M194.4 390.85L197.4 390.85L197.4 407.85L194.4 407.85L194.4 390.85Z" />
		<path id="Layer" class="shp4" d="M204.4 397.85L204.4 400.85L187.4 400.85L187.4 397.85L204.4 397.85Z" />
	</g>
	<g id="Layer" style="opacity: 0.502">
		<path id="Layer" class="shp4" d="M316.4 511.85L319.4 511.85L319.4 528.85L316.4 528.85L316.4 511.85Z" />
		<path id="Layer" class="shp4" d="M326.4 518.85L326.4 521.85L309.4 521.85L309.4 518.85L326.4 518.85Z" />
	</g>
	<path id="Layer" class="shp5" d="M754.61 583.15C754.2 582.97 753.82 582.72 753.5 582.41C753.18 582.09 752.92 581.72 752.74 581.32C752.55 580.91 752.44 580.47 752.41 580.03C752.38 579.58 752.43 579.13 752.56 578.71C752.57 578.67 752.58 578.64 752.59 578.61C752.6 578.57 752.6 578.54 752.61 578.51C752.62 578.47 752.62 578.44 752.63 578.4C752.63 578.37 752.64 578.33 752.64 578.3L752.64 578.3C752.66 577.9 752.56 577.51 752.34 577.18C752.13 576.85 751.81 576.6 751.44 576.46C751.07 576.32 750.66 576.31 750.28 576.42C749.9 576.53 749.57 576.76 749.33 577.08L749.33 577.08C749.31 577.11 749.29 577.14 749.27 577.16C749.25 577.19 749.23 577.22 749.22 577.25C749.2 577.28 749.18 577.31 749.17 577.35C749.15 577.38 749.14 577.41 749.13 577.44C748.95 577.85 748.69 578.22 748.38 578.54C748.07 578.86 747.7 579.12 747.29 579.31C746.89 579.5 746.45 579.61 746.01 579.64C745.56 579.67 745.11 579.62 744.68 579.49C744.65 579.48 744.62 579.47 744.58 579.46C744.55 579.45 744.52 579.44 744.48 579.44C744.45 579.43 744.41 579.42 744.38 579.42C744.35 579.41 744.31 579.41 744.28 579.41L744.28 579.41C743.88 579.38 743.49 579.49 743.16 579.7C742.83 579.92 742.57 580.24 742.44 580.61C742.3 580.98 742.29 581.39 742.4 581.77C742.51 582.15 742.74 582.48 743.06 582.72L743.06 582.72C743.08 582.74 743.11 582.76 743.14 582.78C743.17 582.8 743.2 582.81 743.23 582.83C743.26 582.85 743.29 582.86 743.32 582.88C743.35 582.89 743.39 582.91 743.42 582.92C743.83 583.1 744.2 583.35 744.52 583.67C744.84 583.98 745.1 584.35 745.29 584.75C745.47 585.16 745.59 585.6 745.62 586.04C745.65 586.49 745.6 586.94 745.46 587.36C745.45 587.4 745.44 587.43 745.44 587.46C745.43 587.5 745.42 587.53 745.41 587.56C745.41 587.6 745.4 587.63 745.4 587.67C745.39 587.7 745.39 587.74 745.38 587.77L745.38 587.77C745.36 588.17 745.46 588.56 745.68 588.89C745.9 589.22 746.21 589.47 746.59 589.61C746.96 589.75 747.36 589.76 747.74 589.65C748.12 589.54 748.46 589.31 748.7 588.99L748.7 588.99C748.72 588.96 748.74 588.94 748.75 588.91C748.77 588.88 748.79 588.85 748.81 588.82C748.82 588.79 748.84 588.76 748.86 588.72C748.87 588.69 748.89 588.66 748.9 588.63C749.08 588.22 749.33 587.85 749.64 587.53C749.95 587.21 750.32 586.95 750.73 586.76C751.14 586.57 751.57 586.46 752.02 586.43C752.46 586.4 752.91 586.45 753.34 586.58C753.37 586.59 753.41 586.6 753.44 586.61C753.47 586.62 753.51 586.63 753.54 586.63C753.58 586.64 753.61 586.65 753.64 586.65C753.68 586.66 753.71 586.66 753.75 586.66L753.75 586.66C754.14 586.69 754.54 586.58 754.87 586.37C755.2 586.15 755.45 585.83 755.59 585.46C755.73 585.09 755.74 584.68 755.63 584.3C755.52 583.92 755.28 583.59 754.97 583.35L754.97 583.35C754.94 583.33 754.91 583.31 754.88 583.29C754.85 583.27 754.82 583.26 754.79 583.24C754.76 583.22 754.73 583.21 754.7 583.19C754.67 583.18 754.64 583.16 754.61 583.15Z" />
	<path id="Layer" class="shp5" d="M678.61 684.15C678.2 683.97 677.82 683.72 677.5 683.41C677.18 683.09 676.92 682.72 676.74 682.32C676.55 681.91 676.44 681.47 676.41 681.03C676.38 680.58 676.43 680.13 676.56 679.71C676.57 679.67 676.58 679.64 676.59 679.61C676.6 679.57 676.6 679.54 676.61 679.51C676.62 679.47 676.62 679.44 676.63 679.4C676.63 679.37 676.64 679.33 676.64 679.3L676.64 679.3C676.66 678.9 676.56 678.51 676.34 678.18C676.13 677.85 675.81 677.6 675.44 677.46C675.07 677.32 674.66 677.31 674.28 677.42C673.9 677.53 673.57 677.76 673.33 678.08L673.33 678.08C673.31 678.11 673.29 678.14 673.27 678.16C673.25 678.19 673.23 678.22 673.22 678.25C673.2 678.28 673.18 678.31 673.17 678.35C673.15 678.38 673.14 678.41 673.13 678.44C672.95 678.85 672.69 679.22 672.38 679.54C672.07 679.86 671.7 680.12 671.29 680.31C670.89 680.5 670.45 680.61 670.01 680.64C669.56 680.67 669.11 680.62 668.68 680.49C668.65 680.48 668.62 680.47 668.58 680.46C668.55 680.45 668.52 680.44 668.48 680.44C668.45 680.43 668.41 680.42 668.38 680.42C668.35 680.41 668.31 680.41 668.28 680.41L668.28 680.41C667.88 680.38 667.49 680.49 667.16 680.7C666.83 680.92 666.57 681.24 666.44 681.61C666.3 681.98 666.29 682.39 666.4 682.77C666.51 683.15 666.74 683.48 667.06 683.72L667.06 683.72C667.08 683.74 667.11 683.76 667.14 683.78C667.17 683.8 667.2 683.81 667.23 683.83C667.26 683.85 667.29 683.86 667.32 683.88C667.35 683.89 667.39 683.91 667.42 683.92C667.83 684.1 668.2 684.35 668.52 684.67C668.84 684.98 669.1 685.35 669.29 685.75C669.47 686.16 669.59 686.6 669.62 687.04C669.65 687.49 669.6 687.94 669.46 688.36C669.45 688.4 669.44 688.43 669.44 688.46C669.43 688.5 669.42 688.53 669.41 688.56C669.41 688.6 669.4 688.63 669.4 688.67C669.39 688.7 669.39 688.74 669.38 688.77L669.38 688.77C669.36 689.17 669.46 689.56 669.68 689.89C669.9 690.22 670.21 690.47 670.59 690.61C670.96 690.75 671.36 690.76 671.74 690.65C672.12 690.54 672.46 690.31 672.7 689.99L672.7 689.99C672.72 689.96 672.74 689.94 672.75 689.91C672.77 689.88 672.79 689.85 672.81 689.82C672.82 689.79 672.84 689.76 672.86 689.72C672.87 689.69 672.89 689.66 672.9 689.63C673.08 689.22 673.33 688.85 673.64 688.53C673.95 688.21 674.32 687.95 674.73 687.76C675.14 687.57 675.57 687.46 676.02 687.43C676.46 687.4 676.91 687.45 677.34 687.58C677.37 687.59 677.41 687.6 677.44 687.61C677.47 687.62 677.51 687.63 677.54 687.63C677.58 687.64 677.61 687.65 677.64 687.65C677.68 687.66 677.71 687.66 677.75 687.66L677.75 687.66C678.14 687.69 678.54 687.58 678.87 687.37C679.2 687.15 679.45 686.83 679.59 686.46C679.73 686.09 679.74 685.68 679.63 685.3C679.52 684.92 679.28 684.59 678.97 684.35L678.97 684.35C678.94 684.33 678.91 684.31 678.88 684.29C678.85 684.27 678.82 684.26 678.79 684.24C678.76 684.22 678.73 684.21 678.7 684.19C678.67 684.18 678.64 684.16 678.61 684.15Z" />
	<path id="Layer" class="shp5" d="M12.29 436.81C11.88 436.63 11.51 436.38 11.19 436.07C10.87 435.75 10.61 435.39 10.42 434.98C10.23 434.57 10.12 434.14 10.09 433.69C10.06 433.24 10.11 432.8 10.24 432.37C10.25 432.34 10.26 432.3 10.27 432.27C10.28 432.24 10.29 432.2 10.29 432.17C10.3 432.13 10.31 432.1 10.31 432.06C10.32 432.03 10.32 432 10.32 431.96L10.32 431.96C10.35 431.57 10.24 431.17 10.03 430.84C9.81 430.51 9.49 430.26 9.12 430.12C8.75 429.98 8.34 429.97 7.96 430.08C7.58 430.19 7.25 430.42 7.01 430.74L7.01 430.74C6.99 430.77 6.97 430.8 6.95 430.83C6.93 430.86 6.92 430.88 6.9 430.91C6.88 430.95 6.87 430.98 6.85 431.01C6.84 431.04 6.82 431.07 6.81 431.1C6.63 431.51 6.38 431.89 6.06 432.21C5.75 432.52 5.38 432.78 4.98 432.97C4.57 433.16 4.13 433.27 3.69 433.3C3.24 433.33 2.79 433.28 2.37 433.15C2.33 433.14 2.3 433.13 2.27 433.12C2.23 433.11 2.2 433.1 2.17 433.1C2.13 433.09 2.1 433.09 2.06 433.08C2.03 433.08 1.99 433.07 1.96 433.07L1.96 433.07C1.56 433.05 1.17 433.15 0.84 433.37C0.51 433.58 0.26 433.9 0.12 434.27C-0.02 434.64 -0.03 435.05 0.08 435.43C0.19 435.81 0.42 436.14 0.74 436.38L0.74 436.38C0.77 436.4 0.79 436.42 0.82 436.44C0.85 436.46 0.88 436.48 0.91 436.49C0.94 436.51 0.97 436.53 1.01 436.54C1.04 436.56 1.07 436.57 1.1 436.58C1.51 436.76 1.88 437.01 2.2 437.33C2.52 437.64 2.78 438.01 2.97 438.41C3.16 438.82 3.27 439.26 3.3 439.7C3.33 440.15 3.28 440.6 3.15 441.02C3.14 441.06 3.13 441.09 3.12 441.12C3.11 441.16 3.1 441.19 3.1 441.23C3.09 441.26 3.08 441.29 3.08 441.33C3.07 441.36 3.07 441.4 3.07 441.43L3.07 441.43C3.04 441.83 3.15 442.22 3.36 442.55C3.58 442.88 3.9 443.14 4.27 443.27C4.64 443.41 5.05 443.42 5.43 443.31C5.81 443.2 6.14 442.97 6.38 442.65L6.38 442.65C6.4 442.63 6.42 442.6 6.44 442.57C6.46 442.54 6.47 442.51 6.49 442.48C6.51 442.45 6.52 442.42 6.54 442.39C6.55 442.36 6.57 442.32 6.58 442.29C6.76 441.88 7.01 441.51 7.32 441.19C7.64 440.87 8.01 440.61 8.41 440.42C8.82 440.23 9.26 440.12 9.7 440.09C10.15 440.06 10.6 440.11 11.02 440.24C11.06 440.25 11.09 440.26 11.12 440.27C11.16 440.28 11.19 440.29 11.22 440.3C11.26 440.3 11.29 440.31 11.33 440.31C11.36 440.32 11.4 440.32 11.43 440.32L11.43 440.32C11.83 440.35 12.22 440.24 12.55 440.03C12.88 439.81 13.13 439.49 13.27 439.12C13.41 438.75 13.42 438.35 13.31 437.97C13.2 437.59 12.97 437.25 12.65 437.01L12.65 437.01C12.62 436.99 12.59 436.97 12.57 436.95C12.54 436.94 12.51 436.92 12.48 436.9C12.45 436.88 12.42 436.87 12.38 436.85C12.35 436.84 12.32 436.82 12.29 436.81L12.29 436.81Z" />
	<path id="Layer" class="shp6" d="M427.4 88.85C424.08 88.85 421.4 86.17 421.4 82.85C421.4 79.54 424.08 76.85 427.4 76.85C430.72 76.85 433.4 79.54 433.4 82.85C433.4 86.17 430.72 88.85 427.4 88.85Z" />
	<path id="Layer" class="shp5" d="M96.4 245.85C93.08 245.85 90.4 243.17 90.4 239.85C90.4 236.54 93.08 233.85 96.4 233.85C99.72 233.85 102.4 236.54 102.4 239.85C102.4 243.17 99.72 245.85 96.4 245.85Z" />
	<path id="Layer" class="shp7" d="M807.72 411.19C804.4 411.19 801.72 408.51 801.72 405.19C801.72 401.87 804.4 399.19 807.72 399.19C811.03 399.19 813.72 401.87 813.72 405.19C813.72 408.51 811.03 411.19 807.72 411.19Z" />
	<path id="Layer" class="shp6" d="M23.72 301.19C20.4 301.19 17.72 298.51 17.72 295.19C17.72 291.87 20.4 289.19 23.72 289.19C27.03 289.19 29.72 291.87 29.72 295.19C29.72 298.51 27.03 301.19 23.72 301.19Z" />
	<g id="Layer" style="opacity: 0.502">
		<path id="Layer" class="shp8" d="M644.74 438.62L646.74 234.67L709.09 235.28L707.09 439.23L644.74 438.62Z" />
	</g>
	<path id="Layer" class="shp9" d="M648.77 236.05L708.06 236.63L706.08 437.86L646.79 437.28L648.77 236.05Z" />
	<path id="Layer" class="shp10" d="M657.48 239.37L699.39 239.78L698.98 281.7L657.07 281.28L657.48 239.37Z" />
	<path id="Layer" class="shp5" d="M656.99 289.97L698.9 290.38L698.48 332.3L656.57 331.88L656.99 289.97Z" />
	<path id="Layer" class="shp11" d="M656.49 340.57L698.4 340.98L697.99 382.9L656.08 382.48L656.49 340.57Z" />
	<g id="Layer" style="opacity: 0.502">
		<path id="Layer" class="shp12" d="M583.5 265.43L642.88 246.38L704.94 439.88L645.56 458.92L583.5 265.43Z" />
	</g>
	<path id="Layer" class="shp2" d="M585.86 266.1L642.32 247.99L703.55 438.89L647.09 456.99L585.86 266.1Z" />
	<path id="Layer" class="shp13" d="M595.16 266.52L635.07 253.72L647.87 293.63L607.96 306.43L595.16 266.52Z" />
	<path id="Layer" class="shp14" d="M610.62 314.7L650.53 301.9L663.33 341.81L623.42 354.61L610.62 314.7Z" />
	<path id="Layer" class="shp15" d="M626.07 362.88L665.98 350.08L678.78 389.99L638.87 402.8L626.07 362.88Z" />
	<g id="Layer" style="opacity: 0.502">
		<path id="Layer" class="shp16" d="M551.72 290.98L606.01 260.3L706 437.2L651.71 467.88L551.72 290.98Z" />
	</g>
	<path id="Layer" class="shp2" d="M554.17 291.17L605.79 261.99L704.44 436.51L652.82 465.69L554.17 291.17Z" />
	<path id="Layer" class="shp17" d="M563.34 289.7L599.82 269.08L620.45 305.56L583.96 326.19L563.34 289.7Z" />
	<path id="Layer" class="shp18" d="M588.24 333.75L624.72 313.13L645.35 349.62L608.86 370.24L588.24 333.75Z" />
	<path id="Layer" class="shp19" d="M613.14 377.81L649.63 357.18L670.25 393.67L633.76 414.29L613.14 377.81Z" />
	<g id="Layer" style="opacity: 0.502">
		<path id="Layer" class="shp20" d="M534.2 312.9L584.21 275.65L705.59 438.61L655.58 475.86L534.2 312.9Z" />
	</g>
	<path id="Layer" class="shp1" d="M536.65 312.77L584.2 277.35L703.96 438.13L656.41 473.55L536.65 312.77Z" />
	<path id="Layer" class="shp21" d="M575.78 350.76L609.4 325.72L634.43 359.33L600.82 384.37L575.78 350.76Z" />
	<path id="Layer" class="shp0" d="M545.56 310.18L579.17 285.14L604.21 318.75L570.59 343.79L545.56 310.18Z" />
	<path id="Layer" class="shp22" d="M606.01 391.34L639.62 366.3L664.66 399.92L631.05 424.95L606.01 391.34Z" />
</svg>